<svg width="85" height="85" viewBox="0 0 85 85" fill="none" xmlns="http://www.w3.org/2000/svg">
<g opacity="0.2">
<path d="M56.9324 10.555L56.9324 -2.36722e-06L84.999 -4.82088e-06L84.999 28.0666L74.524 28.0666L74.524 10.555L56.9324 10.555Z" fill="#FFCF2D"/>
<path d="M37.9827 29.5052L37.9827 19.0302L66.0493 19.0302L66.0493 47.0168L55.4944 47.0168L55.4944 29.5052L37.9827 29.5052Z" fill="#FFCF2D"/>
<path d="M19.0314 48.5364L19.0314 37.9814L47.0181 37.9814L47.0181 66.048L36.5431 66.0481L36.5431 48.5364L19.0314 48.5364Z" fill="#FFCF2D"/>
<path d="M4.98852e-05 67.4876L4.89624e-05 56.9326L28.0666 56.9326L28.0667 84.9992L17.5117 84.9992L17.5117 67.4876L4.98852e-05 67.4876Z" fill="#FFCF2D"/>
</g>
</svg>
