<svg width="143" height="105" viewBox="0 0 143 105" fill="none" xmlns="http://www.w3.org/2000/svg">
<path d="M4.08016 30.8592C4.08016 32.0237 3.20584 32.8971 2.04008 32.8971C0.874321 32.8971 0 32.0237 0 30.8592C0 29.6947 0.874321 28.8213 2.04008 28.8213C3.20584 28.8213 4.08016 29.7917 4.08016 30.8592Z" fill="#FFCF2D"/>
<path d="M21.4693 30.8592C21.4693 32.0237 20.595 32.8971 19.4292 32.8971C18.2635 32.8971 17.3892 32.0237 17.3892 30.8592C17.3892 29.6947 18.2635 28.8213 19.4292 28.8213C20.4979 28.8213 21.4693 29.7917 21.4693 30.8592Z" fill="#FFCF2D"/>
<path d="M38.7616 30.8592C38.7616 32.0237 37.8872 32.8971 36.7215 32.8971C35.5557 32.8971 34.6814 32.0237 34.6814 30.8592C34.6814 29.6947 35.5557 28.8213 36.7215 28.8213C37.8872 28.8213 38.7616 29.7917 38.7616 30.8592Z" fill="#FFCF2D"/>
<path d="M56.1507 30.8592C56.1507 32.0237 55.2764 32.8971 54.1106 32.8971C52.9449 32.8971 52.0706 32.0237 52.0706 30.8592C52.0706 29.6947 52.9449 28.8213 54.1106 28.8213C55.2764 28.8213 56.1507 29.7917 56.1507 30.8592Z" fill="#FFCF2D"/>
<path d="M73.5401 30.8592C73.5401 32.0237 72.6658 32.8971 71.5 32.8971C70.3343 32.8971 69.46 32.0237 69.46 30.8592C69.46 29.6947 70.3343 28.8213 71.5 28.8213C72.5687 28.8213 73.5401 29.7917 73.5401 30.8592Z" fill="#FFCF2D"/>
<path d="M90.9293 30.8592C90.9293 32.0237 90.055 32.8971 88.8892 32.8971C87.7234 32.8971 86.8491 32.0237 86.8491 30.8592C86.8491 29.6947 87.7234 28.8213 88.8892 28.8213C90.055 28.8213 90.9293 29.7917 90.9293 30.8592Z" fill="#FFCF2D"/>
<path d="M108.222 30.8592C108.222 32.0237 107.347 32.8971 106.181 32.8971C105.016 32.8971 104.141 32.0237 104.141 30.8592C104.141 29.6947 105.016 28.8213 106.181 28.8213C107.347 28.8213 108.222 29.7917 108.222 30.8592Z" fill="#FFCF2D"/>
<path d="M125.611 30.8592C125.611 32.0237 124.736 32.8971 123.571 32.8971C122.405 32.8971 121.531 32.0237 121.531 30.8592C121.531 29.6947 122.405 28.8213 123.571 28.8213C124.736 28.8213 125.611 29.7917 125.611 30.8592Z" fill="#FFCF2D"/>
<path d="M143 30.8592C143 32.0237 142.126 32.8971 140.96 32.8971C139.794 32.8971 138.92 32.0237 138.92 30.8592C138.92 29.6947 139.794 28.8213 140.96 28.8213C142.029 28.8213 143 29.7917 143 30.8592Z" fill="#FFCF2D"/>
<path d="M4.08016 45.3191C4.08016 46.4837 3.20584 47.357 2.04008 47.357C0.874321 47.357 0 46.4837 0 45.3191C0 44.1546 0.874321 43.2812 2.04008 43.2812C3.20584 43.2812 4.08016 44.1546 4.08016 45.3191Z" fill="#FFCF2D"/>
<path d="M21.4693 45.3191C21.4693 46.4837 20.595 47.357 19.4292 47.357C18.2635 47.357 17.3892 46.4837 17.3892 45.3191C17.3892 44.1546 18.2635 43.2812 19.4292 43.2812C20.4979 43.2812 21.4693 44.1546 21.4693 45.3191Z" fill="#FFCF2D"/>
<path d="M38.7616 45.3191C38.7616 46.4837 37.8872 47.357 36.7215 47.357C35.5557 47.357 34.6814 46.4837 34.6814 45.3191C34.6814 44.1546 35.5557 43.2812 36.7215 43.2812C37.8872 43.2812 38.7616 44.1546 38.7616 45.3191Z" fill="#FFCF2D"/>
<path d="M56.1507 45.3191C56.1507 46.4837 55.2764 47.357 54.1106 47.357C52.9449 47.357 52.0706 46.4837 52.0706 45.3191C52.0706 44.1546 52.9449 43.2812 54.1106 43.2812C55.2764 43.2812 56.1507 44.1546 56.1507 45.3191Z" fill="#FFCF2D"/>
<path d="M73.5401 45.3191C73.5401 46.4837 72.6658 47.357 71.5 47.357C70.3343 47.357 69.46 46.4837 69.46 45.3191C69.46 44.1546 70.3343 43.2812 71.5 43.2812C72.5687 43.2812 73.5401 44.1546 73.5401 45.3191Z" fill="#FFCF2D"/>
<path d="M90.9293 45.3191C90.9293 46.4837 90.055 47.357 88.8892 47.357C87.7234 47.357 86.8491 46.4837 86.8491 45.3191C86.8491 44.1546 87.7234 43.2812 88.8892 43.2812C90.055 43.2812 90.9293 44.1546 90.9293 45.3191Z" fill="#FFCF2D"/>
<path d="M108.222 45.3191C108.222 46.4837 107.347 47.357 106.181 47.357C105.016 47.357 104.141 46.4837 104.141 45.3191C104.141 44.1546 105.016 43.2812 106.181 43.2812C107.347 43.2812 108.222 44.1546 108.222 45.3191Z" fill="#FFCF2D"/>
<path d="M125.611 45.3191C125.611 46.4837 124.736 47.357 123.571 47.357C122.405 47.357 121.531 46.4837 121.531 45.3191C121.531 44.1546 122.405 43.2812 123.571 43.2812C124.736 43.2812 125.611 44.1546 125.611 45.3191Z" fill="#FFCF2D"/>
<path d="M143 45.3191C143 46.4837 142.126 47.357 140.96 47.357C139.794 47.357 138.92 46.4837 138.92 45.3191C138.92 44.1546 139.794 43.2812 140.96 43.2812C142.029 43.2812 143 44.1546 143 45.3191Z" fill="#FFCF2D"/>
<path d="M4.08016 2.03789C4.08016 3.2024 3.20584 4.07579 2.04008 4.07579C0.874321 4.07579 0 3.2024 0 2.03789C0 0.873382 0.874321 0 2.04008 0C3.20584 0 4.08016 0.873382 4.08016 2.03789Z" fill="#FFCF2D"/>
<path d="M21.4693 2.03789C21.4693 3.2024 20.595 4.07579 19.4292 4.07579C18.2635 4.07579 17.3892 3.2024 17.3892 2.03789C17.3892 0.873382 18.2635 0 19.4292 0C20.4979 0 21.4693 0.873382 21.4693 2.03789Z" fill="#FFCF2D"/>
<path d="M38.7616 2.03789C38.7616 3.2024 37.8872 4.07579 36.7215 4.07579C35.5557 4.07579 34.6814 3.2024 34.6814 2.03789C34.6814 0.873382 35.6529 0 36.7215 0C37.8872 0 38.7616 0.873382 38.7616 2.03789Z" fill="#FFCF2D"/>
<path d="M56.1507 2.03789C56.1507 3.2024 55.2764 4.07579 54.1106 4.07579C52.9449 4.07579 52.0706 3.2024 52.0706 2.03789C52.0706 0.873382 53.042 0 54.1106 0C55.1793 0 56.1507 0.873382 56.1507 2.03789Z" fill="#FFCF2D"/>
<path d="M73.5401 2.03789C73.5401 3.2024 72.6658 4.07579 71.5 4.07579C70.3343 4.07579 69.46 3.2024 69.46 2.03789C69.46 0.873382 70.3343 0 71.5 0C72.5687 0 73.5401 0.873382 73.5401 2.03789Z" fill="#FFCF2D"/>
<path d="M90.9293 2.03789C90.9293 3.2024 90.055 4.07579 88.8892 4.07579C87.7234 4.07579 86.8491 3.2024 86.8491 2.03789C86.8491 0.873382 87.7234 0 88.8892 0C90.055 0 90.9293 0.873382 90.9293 2.03789Z" fill="#FFCF2D"/>
<path d="M108.222 2.03789C108.222 3.2024 107.347 4.07579 106.181 4.07579C105.016 4.07579 104.141 3.2024 104.141 2.03789C104.141 0.873382 105.016 0 106.181 0C107.347 0 108.222 0.873382 108.222 2.03789Z" fill="#FFCF2D"/>
<path d="M125.611 2.03789C125.611 3.2024 124.736 4.07579 123.571 4.07579C122.405 4.07579 121.531 3.2024 121.531 2.03789C121.531 0.873382 122.405 0 123.571 0C124.736 0 125.611 0.873382 125.611 2.03789Z" fill="#FFCF2D"/>
<path d="M143 2.03789C143 3.2024 142.126 4.07579 140.96 4.07579C139.794 4.07579 138.92 3.2024 138.92 2.03789C138.92 0.873382 139.794 0 140.96 0C142.029 0 143 0.873382 143 2.03789Z" fill="#FFCF2D"/>
<path d="M4.08016 16.4969C4.08016 17.6614 3.20584 18.5348 2.04008 18.5348C0.874321 18.5348 0 17.5643 0 16.4969C0 15.3324 0.874321 14.459 2.04008 14.459C3.20584 14.459 4.08016 15.3324 4.08016 16.4969Z" fill="#FFCF2D"/>
<path d="M21.4693 16.4969C21.4693 17.6614 20.595 18.5348 19.4292 18.5348C18.2635 18.5348 17.3892 17.6614 17.3892 16.4969C17.3892 15.3324 18.2635 14.459 19.4292 14.459C20.4979 14.459 21.4693 15.3324 21.4693 16.4969Z" fill="#FFCF2D"/>
<path d="M38.7616 16.4969C38.7616 17.6614 37.8872 18.5348 36.7215 18.5348C35.5557 18.5348 34.6814 17.6614 34.6814 16.4969C34.6814 15.3324 35.5557 14.459 36.7215 14.459C37.8872 14.459 38.7616 15.3324 38.7616 16.4969Z" fill="#FFCF2D"/>
<path d="M56.1507 16.4969C56.1507 17.6614 55.2764 18.5348 54.1106 18.5348C52.9449 18.5348 52.0706 17.6614 52.0706 16.4969C52.0706 15.3324 52.9449 14.459 54.1106 14.459C55.2764 14.459 56.1507 15.3324 56.1507 16.4969Z" fill="#FFCF2D"/>
<path d="M73.5401 16.4969C73.5401 17.6614 72.6658 18.5348 71.5 18.5348C70.3343 18.5348 69.46 17.6614 69.46 16.4969C69.46 15.3324 70.3343 14.459 71.5 14.459C72.5687 14.459 73.5401 15.3324 73.5401 16.4969Z" fill="#FFCF2D"/>
<path d="M90.9293 16.4969C90.9293 17.6614 90.055 18.5348 88.8892 18.5348C87.7234 18.5348 86.8491 17.6614 86.8491 16.4969C86.8491 15.3324 87.7234 14.459 88.8892 14.459C90.055 14.459 90.9293 15.3324 90.9293 16.4969Z" fill="#FFCF2D"/>
<path d="M108.222 16.4969C108.222 17.6614 107.347 18.5348 106.181 18.5348C105.016 18.5348 104.141 17.6614 104.141 16.4969C104.141 15.3324 105.016 14.459 106.181 14.459C107.347 14.459 108.222 15.3324 108.222 16.4969Z" fill="#FFCF2D"/>
<path d="M125.611 16.4969C125.611 17.6614 124.736 18.5348 123.571 18.5348C122.405 18.5348 121.531 17.6614 121.531 16.4969C121.531 15.3324 122.405 14.459 123.571 14.459C124.736 14.459 125.611 15.3324 125.611 16.4969Z" fill="#FFCF2D"/>
<path d="M143 16.4969C143 17.6614 142.126 18.5348 140.96 18.5348C139.794 18.5348 138.92 17.6614 138.92 16.4969C138.92 15.3324 139.794 14.459 140.96 14.459C142.029 14.459 143 15.3324 143 16.4969Z" fill="#FFCF2D"/>
<path d="M4.08016 59.6814C4.08016 60.846 3.20584 61.7193 2.04008 61.7193C0.874321 61.7193 0 60.846 0 59.6814C0 58.5169 0.874321 57.6436 2.04008 57.6436C3.20584 57.6436 4.08016 58.614 4.08016 59.6814Z" fill="#FFCF2D"/>
<path d="M21.4693 59.6814C21.4693 60.846 20.595 61.7193 19.4292 61.7193C18.2635 61.7193 17.3892 60.846 17.3892 59.6814C17.3892 58.5169 18.2635 57.6436 19.4292 57.6436C20.4979 57.6436 21.4693 58.614 21.4693 59.6814Z" fill="#FFCF2D"/>
<path d="M38.7616 59.6814C38.7616 60.846 37.8872 61.7193 36.7215 61.7193C35.5557 61.7193 34.6814 60.846 34.6814 59.6814C34.6814 58.5169 35.5557 57.6436 36.7215 57.6436C37.8872 57.6436 38.7616 58.614 38.7616 59.6814Z" fill="#FFCF2D"/>
<path d="M56.1507 59.6814C56.1507 60.846 55.2764 61.7193 54.1106 61.7193C52.9449 61.7193 52.0706 60.846 52.0706 59.6814C52.0706 58.5169 52.9449 57.6436 54.1106 57.6436C55.2764 57.6436 56.1507 58.614 56.1507 59.6814Z" fill="#FFCF2D"/>
<path d="M73.5401 59.6814C73.5401 60.846 72.6658 61.7193 71.5 61.7193C70.3343 61.7193 69.46 60.846 69.46 59.6814C69.46 58.5169 70.3343 57.6436 71.5 57.6436C72.5687 57.6436 73.5401 58.614 73.5401 59.6814Z" fill="#FFCF2D"/>
<path d="M90.9293 59.6814C90.9293 60.846 90.055 61.7193 88.8892 61.7193C87.7234 61.7193 86.8491 60.846 86.8491 59.6814C86.8491 58.5169 87.7234 57.6436 88.8892 57.6436C90.055 57.6436 90.9293 58.614 90.9293 59.6814Z" fill="#FFCF2D"/>
<path d="M108.222 59.6814C108.222 60.846 107.347 61.7193 106.181 61.7193C105.016 61.7193 104.141 60.846 104.141 59.6814C104.141 58.5169 105.016 57.6436 106.181 57.6436C107.347 57.6436 108.222 58.614 108.222 59.6814Z" fill="#FFCF2D"/>
<path d="M125.611 59.6814C125.611 60.846 124.736 61.7193 123.571 61.7193C122.405 61.7193 121.531 60.846 121.531 59.6814C121.531 58.5169 122.405 57.6436 123.571 57.6436C124.736 57.6436 125.611 58.614 125.611 59.6814Z" fill="#FFCF2D"/>
<path d="M143 59.6814C143 60.846 142.126 61.7193 140.96 61.7193C139.794 61.7193 138.92 60.846 138.92 59.6814C138.92 58.5169 139.794 57.6436 140.96 57.6436C142.029 57.6436 143 58.614 143 59.6814Z" fill="#FFCF2D"/>
<path d="M4.08016 74.1404C4.08016 75.3049 3.20584 76.1783 2.04008 76.1783C0.874321 76.1783 0 75.3049 0 74.1404C0 72.9759 0.874321 72.1025 2.04008 72.1025C3.20584 72.1025 4.08016 72.9759 4.08016 74.1404Z" fill="#FFCF2D"/>
<path d="M21.4693 74.1404C21.4693 75.3049 20.595 76.1783 19.4292 76.1783C18.2635 76.1783 17.3892 75.3049 17.3892 74.1404C17.3892 72.9759 18.2635 72.1025 19.4292 72.1025C20.4979 72.1025 21.4693 72.9759 21.4693 74.1404Z" fill="#FFCF2D"/>
<path d="M38.7616 74.1404C38.7616 75.3049 37.8872 76.1783 36.7215 76.1783C35.5557 76.1783 34.6814 75.3049 34.6814 74.1404C34.6814 72.9759 35.5557 72.1025 36.7215 72.1025C37.8872 72.1025 38.7616 72.9759 38.7616 74.1404Z" fill="#FFCF2D"/>
<path d="M54.1106 76.1783C55.2373 76.1783 56.1507 75.2659 56.1507 74.1404C56.1507 73.0149 55.2373 72.1025 54.1106 72.1025C52.9839 72.1025 52.0706 73.0149 52.0706 74.1404C52.0706 75.2659 52.9839 76.1783 54.1106 76.1783Z" fill="#FFCF2D"/>
<path d="M73.5401 74.1404C73.5401 75.3049 72.6658 76.1783 71.5 76.1783C70.3343 76.1783 69.46 75.3049 69.46 74.1404C69.46 72.9759 70.3343 72.1025 71.5 72.1025C72.5687 72.1025 73.5401 72.9759 73.5401 74.1404Z" fill="#FFCF2D"/>
<path d="M90.9293 74.1404C90.9293 75.3049 90.055 76.1783 88.8892 76.1783C87.7234 76.1783 86.8491 75.3049 86.8491 74.1404C86.8491 72.9759 87.7234 72.1025 88.8892 72.1025C90.055 72.1025 90.9293 72.9759 90.9293 74.1404Z" fill="#FFCF2D"/>
<path d="M108.222 74.1404C108.222 75.3049 107.347 76.1783 106.181 76.1783C105.016 76.1783 104.141 75.3049 104.141 74.1404C104.141 72.9759 105.016 72.1025 106.181 72.1025C107.347 72.1025 108.222 72.9759 108.222 74.1404Z" fill="#FFCF2D"/>
<path d="M123.571 76.1783C124.697 76.1783 125.611 75.2659 125.611 74.1404C125.611 73.0149 124.697 72.1025 123.571 72.1025C122.444 72.1025 121.531 73.0149 121.531 74.1404C121.531 75.2659 122.444 76.1783 123.571 76.1783Z" fill="#FFCF2D"/>
<path d="M143 74.1404C143 75.3049 142.126 76.1783 140.96 76.1783C139.794 76.1783 138.92 75.3049 138.92 74.1404C138.92 72.9759 139.794 72.1025 140.96 72.1025C142.029 72.1025 143 72.9759 143 74.1404Z" fill="#FFCF2D"/>
<path d="M4.08016 88.6004C4.08016 89.7649 3.20584 90.6383 2.04008 90.6383C0.874321 90.6383 0 89.7649 0 88.6004C0 87.4359 0.874321 86.5625 2.04008 86.5625C3.20584 86.5625 4.08016 87.4359 4.08016 88.6004Z" fill="#FFCF2D"/>
<path d="M21.4693 88.6004C21.4693 89.7649 20.595 90.6383 19.4292 90.6383C18.2635 90.6383 17.3892 89.7649 17.3892 88.6004C17.3892 87.4359 18.2635 86.5625 19.4292 86.5625C20.4979 86.5625 21.4693 87.4359 21.4693 88.6004Z" fill="#FFCF2D"/>
<path d="M38.7616 88.6004C38.7616 89.7649 37.8872 90.6383 36.7215 90.6383C35.5557 90.6383 34.6814 89.7649 34.6814 88.6004C34.6814 87.4359 35.5557 86.5625 36.7215 86.5625C37.8872 86.5625 38.7616 87.4359 38.7616 88.6004Z" fill="#FFCF2D"/>
<path d="M56.1507 88.6004C56.1507 89.7649 55.2764 90.6383 54.1106 90.6383C52.9449 90.6383 52.0706 89.7649 52.0706 88.6004C52.0706 87.4359 52.9449 86.5625 54.1106 86.5625C55.2764 86.5625 56.1507 87.4359 56.1507 88.6004Z" fill="#FFCF2D"/>
<path d="M73.5401 88.6004C73.5401 89.7649 72.6658 90.6383 71.5 90.6383C70.3343 90.6383 69.46 89.7649 69.46 88.6004C69.46 87.4359 70.3343 86.5625 71.5 86.5625C72.5687 86.5625 73.5401 87.4359 73.5401 88.6004Z" fill="#FFCF2D"/>
<path d="M90.9293 88.6004C90.9293 89.7649 90.055 90.6383 88.8892 90.6383C87.7234 90.6383 86.8491 89.7649 86.8491 88.6004C86.8491 87.4359 87.7234 86.5625 88.8892 86.5625C90.055 86.5625 90.9293 87.4359 90.9293 88.6004Z" fill="#FFCF2D"/>
<path d="M108.222 88.6004C108.222 89.7649 107.347 90.6383 106.181 90.6383C105.016 90.6383 104.141 89.7649 104.141 88.6004C104.141 87.4359 105.016 86.5625 106.181 86.5625C107.347 86.5625 108.222 87.4359 108.222 88.6004Z" fill="#FFCF2D"/>
<path d="M125.611 88.6004C125.611 89.7649 124.736 90.6383 123.571 90.6383C122.405 90.6383 121.531 89.7649 121.531 88.6004C121.531 87.4359 122.405 86.5625 123.571 86.5625C124.736 86.5625 125.611 87.4359 125.611 88.6004Z" fill="#FFCF2D"/>
<path d="M143 88.6004C143 89.7649 142.126 90.6383 140.96 90.6383C139.794 90.6383 138.92 89.7649 138.92 88.6004C138.92 87.4359 139.794 86.5625 140.96 86.5625C142.029 86.5625 143 87.4359 143 88.6004Z" fill="#FFCF2D"/>
<path d="M4.08016 102.963C4.08016 104.127 3.20584 105.001 2.04008 105.001C0.874321 105.001 0 104.127 0 102.963C0 101.798 0.874321 100.925 2.04008 100.925C3.20584 100.925 4.08016 101.895 4.08016 102.963Z" fill="#FFCF2D"/>
<path d="M21.4693 102.963C21.4693 104.127 20.595 105.001 19.4292 105.001C18.2635 105.001 17.3892 104.127 17.3892 102.963C17.3892 101.798 18.2635 100.925 19.4292 100.925C20.4979 100.925 21.4693 101.895 21.4693 102.963Z" fill="#FFCF2D"/>
<path d="M38.7616 102.963C38.7616 104.127 37.8872 105.001 36.7215 105.001C35.5557 105.001 34.6814 104.127 34.6814 102.963C34.6814 101.798 35.5557 100.925 36.7215 100.925C37.8872 100.925 38.7616 101.895 38.7616 102.963Z" fill="#FFCF2D"/>
<path d="M56.1507 102.963C56.1507 104.127 55.2764 105.001 54.1106 105.001C52.9449 105.001 52.0706 104.127 52.0706 102.963C52.0706 101.798 52.9449 100.925 54.1106 100.925C55.2764 100.925 56.1507 101.895 56.1507 102.963Z" fill="#FFCF2D"/>
<path d="M73.5401 102.963C73.5401 104.127 72.6658 105.001 71.5 105.001C70.3343 105.001 69.46 104.127 69.46 102.963C69.46 101.798 70.3343 100.925 71.5 100.925C72.5687 100.925 73.5401 101.895 73.5401 102.963Z" fill="#FFCF2D"/>
<path d="M90.9293 102.963C90.9293 104.127 90.055 105.001 88.8892 105.001C87.7234 105.001 86.8491 104.127 86.8491 102.963C86.8491 101.798 87.7234 100.925 88.8892 100.925C90.055 100.925 90.9293 101.895 90.9293 102.963Z" fill="#FFCF2D"/>
<path d="M108.222 102.963C108.222 104.127 107.347 105.001 106.181 105.001C105.016 105.001 104.141 104.127 104.141 102.963C104.141 101.798 105.016 100.925 106.181 100.925C107.347 100.925 108.222 101.895 108.222 102.963Z" fill="#FFCF2D"/>
<path d="M125.611 102.963C125.611 104.127 124.736 105.001 123.571 105.001C122.405 105.001 121.531 104.127 121.531 102.963C121.531 101.798 122.405 100.925 123.571 100.925C124.736 100.925 125.611 101.895 125.611 102.963Z" fill="#FFCF2D"/>
<path d="M143 102.963C143 104.127 142.126 105.001 140.96 105.001C139.794 105.001 138.92 104.127 138.92 102.963C138.92 101.798 139.794 100.925 140.96 100.925C142.029 100.925 143 101.895 143 102.963Z" fill="#FFCF2D"/>
</svg>
